<?xml version="1.0" standalone="no"?><!DOCTYPE svg PUBLIC "-//W3C//DTD SVG 1.1//EN" "http://www.w3.org/Graphics/SVG/1.1/DTD/svg11.dtd"><svg t="1666521479709" class="icon" viewBox="0 0 1024 1024" version="1.1" xmlns="http://www.w3.org/2000/svg" p-id="10057" xmlns:xlink="http://www.w3.org/1999/xlink" width="200" height="200"><path d="M768.1 382.3m-149.4 0a149.4 149.4 0 1 0 298.8 0 149.4 149.4 0 1 0-298.8 0Z" fill="#A5E8D0" p-id="10058"></path><path d="M758 401.8c-19.4-121.9-124.2-213.6-250.7-213.6-118.8 0-220.9 82.8-247.3 196.4C160.3 416 90.3 509.4 90.3 615.9c0 122.7 91.6 224.3 209.9 240.3v2.2h404.4l32.2-0.1v-2.5c111.3-16.9 196.9-113.2 196.9-229.2C933.7 518.9 860 427 758 401.8zM702.7 784h-328v-1l-37.9 0.7c-1.4 0-2.7 0.1-4 0.2-98.4 0-177.3-85-167.1-185.4 7.5-74.3 65.6-133.6 138.8-148.2 12.9-2.6 22.6-13.1 24.3-26.1l0.6-4.8c12.5-97.9 103.2-169.4 204.2-154.8 86.3 12.5 149.6 88 153.2 175.1v1c0.6 15.1 12.1 27.4 27.1 29.1l0.8 0.1c73.6 8.2 135 64.7 143.4 138.3 10.9 94.7-63 175.3-155.4 175.8z" fill="#2A2A2A" p-id="10059"></path><path d="M631.5 503.2h-10.9c-17.6 0-31.8 14.2-31.8 31.8 0 44.9-38.7 80.9-84.5 76.4-39.9-3.9-69.1-39.8-69.1-79.8 0-15.7-12.7-28.4-28.4-28.4h-18.7c-15.1 0-27.4 12.3-27.4 27.4 0 78.7 58.3 147.6 136.7 155 89.9 8.5 165.8-62.4 165.8-150.6 0.1-17.6-14.2-31.8-31.7-31.8z" fill="#2A2A2A" p-id="10060"></path></svg>