<?xml version="1.0" standalone="no"?><!DOCTYPE svg PUBLIC "-//W3C//DTD SVG 1.1//EN" "http://www.w3.org/Graphics/SVG/1.1/DTD/svg11.dtd"><svg t="1667454346624" class="icon" viewBox="0 0 1024 1024" version="1.1" xmlns="http://www.w3.org/2000/svg" p-id="4845" xmlns:xlink="http://www.w3.org/1999/xlink" width="200" height="200"><path d="M103 160h818c21.52 0 39 17.91 39 40s-17.44 40-39 40H103c-21.52 0-39-17.91-39-40s17.44-40 39-40zM103 472h818c21.52 0 39 17.91 39 40s-17.44 40-39 40H103c-21.52 0-39-17.91-39-40s17.44-40 39-40zM103 784h818c21.52 0 39 17.91 39 40s-17.44 40-39 40H103c-21.52 0-39-17.91-39-40s17.44-40 39-40z" fill="#999999" p-id="4846"></path></svg>